<?xml version="1.0" standalone="no"?>
<!DOCTYPE svg PUBLIC "-//W3C//DTD SVG 20010904//EN"
 "http://www.w3.org/TR/2001/REC-SVG-20010904/DTD/svg10.dtd">
<svg version="1.0" xmlns="http://www.w3.org/2000/svg"
 width="379.200000pt" height="379.200000pt" viewBox="0 0 379.200000 379.200000"
 preserveAspectRatio="xMidYMid meet">
<metadata>
Created by potrace 1.13, written by Peter Selinger 2001-2015
</metadata>
<g transform="translate(0.000000,379.200000) scale(0.080000,-0.080000)"
fill="#000000" stroke="none">
<path d="M955 4540 c-267 -8 -317 -16 -418 -66 -150 -76 -278 -235 -317 -394
-21 -89 -29 -563 -29 -1740 -1 -1262 7 -1616 35 -1710 68 -229 257 -394 479
-420 142 -16 3279 -12 3371 5 100 18 194 67 281 149 95 89 158 208 174 331 6
53 9 638 7 1725 l-3 1645 -23 63 c-70 193 -194 315 -391 383 -47 17 -101 21
-341 29 -328 10 -2453 10 -2825 0z m988 -850 c9 -9 4 -10 -23 -5 -47 10 -179
10 -210 1 -17 -6 -22 -5 -15 2 15 16 60 21 153 17 49 -2 89 -8 95 -15z m606
11 c9 -6 -13 -7 -55 -5 -37 3 -70 7 -73 10 -8 8 114 4 128 -5z m752 -29 c35
-16 73 -40 84 -52 l20 -24 -35 25 c-19 13 -45 30 -59 37 -35 18 -137 43 -153
37 -8 -3 -32 -1 -53 5 -33 8 -26 9 46 5 69 -3 100 -10 150 -33z m-1656 -14
c-22 -11 -48 -27 -58 -36 -9 -8 -19 -13 -22 -10 -9 9 89 68 110 67 6 0 -8 -9
-30 -21z m380 -3 c22 -13 36 -24 30 -24 -17 0 -101 48 -85 48 8 1 33 -10 55
-24z m282 4 c-22 -11 -41 -18 -44 -16 -6 7 48 36 67 36 8 0 -2 -9 -23 -20z
m-361 -65 c79 -26 108 -41 156 -84 30 -25 52 -38 62 -34 9 3 16 10 16 14 0 11
73 60 135 90 45 22 63 25 170 25 112 0 123 -2 170 -28 70 -38 85 -48 116 -79
16 -16 32 -28 37 -28 5 0 25 16 45 35 20 19 43 35 52 35 8 0 15 3 15 8 0 8 31
23 100 47 39 15 138 16 268 5 2 0 0 -4 -3 -10 -3 -5 3 -10 13 -10 25 0 74 -25
65 -33 -3 -4 1 -7 9 -7 24 0 97 -88 124 -148 18 -39 24 -71 24 -121 0 -166
-150 -329 -324 -350 l-51 -6 -5 -220 -5 -220 -655 0 -655 0 -5 210 c-3 116 -8
215 -12 221 -4 6 -30 14 -57 17 -112 13 -224 96 -283 209 -29 55 -33 72 -32
138 0 59 6 86 26 126 14 29 30 58 37 65 6 8 19 23 29 34 24 30 77 65 96 65 9
0 16 5 16 10 0 6 7 10 15 10 8 0 15 4 15 8 0 4 17 9 37 10 21 2 39 5 42 7 11
12 152 3 197 -11z m853 -1279 c2 -3 -14 -5 -37 -5 -23 0 -42 5 -42 11 0 10 68
5 79 -6z m341 -140 l0 -85 -660 0 -660 0 0 85 0 85 660 0 660 0 0 -85z m1139
-1217 c-6 -32 -18 -63 -25 -69 -8 -6 -14 -17 -14 -23 0 -19 -72 -91 -130 -129
-108 -71 -58 -68 -1200 -67 -564 1 -1277 5 -1585 10 -521 7 -565 9 -625 28
-44 14 -57 21 -40 22 21 2 22 3 5 8 l-20 5 20 8 c19 7 19 8 -2 10 -37 3 -41 4
-49 11 -4 5 -22 8 -40 8 -37 0 -84 47 -84 83 0 26 29 72 58 93 36 25 142 54
198 54 41 0 54 4 54 15 0 11 12 15 50 15 38 0 48 3 44 14 -5 14 6 20 58 32 50
12 953 23 1993 23 1025 1 1094 2 1156 19 70 19 146 59 170 88 12 15 14 4 17
-92 2 -60 -2 -135 -9 -166z"/>
</g>
</svg>
